<?xml version="1.0" encoding="UTF-8" standalone="no"?>
<!-- Created with Inkscape (http://www.inkscape.org/) -->

<svg
   xmlns:dc="http://purl.org/dc/elements/1.1/"
   xmlns:cc="http://creativecommons.org/ns#"
   xmlns:rdf="http://www.w3.org/1999/02/22-rdf-syntax-ns#"
   xmlns:svg="http://www.w3.org/2000/svg"
   xmlns="http://www.w3.org/2000/svg"
   xmlns:sodipodi="http://sodipodi.sourceforge.net/DTD/sodipodi-0.dtd"
   xmlns:inkscape="http://www.inkscape.org/namespaces/inkscape"
   width="119.47124"
   height="71.655243"
   id="svg3123"
   version="1.1"
   inkscape:version="0.48.4 r9939"
   sodipodi:docname="New document 10">
  <defs
     id="defs3125" />
  <sodipodi:namedview
     id="base"
     pagecolor="#ffffff"
     bordercolor="#666666"
     borderopacity="1.0"
     inkscape:pageopacity="0.0"
     inkscape:pageshadow="2"
     inkscape:zoom="1.4"
     inkscape:cx="38.010721"
     inkscape:cy="17.891987"
     inkscape:document-units="px"
     inkscape:current-layer="layer1"
     showgrid="false"
     inkscape:window-width="804"
     inkscape:window-height="553"
     inkscape:window-x="1380"
     inkscape:window-y="149"
     inkscape:window-maximized="0"
     fit-margin-top="0"
     fit-margin-left="0"
     fit-margin-right="0"
     fit-margin-bottom="0" />
  <metadata
     id="metadata3128">
    <rdf:RDF>
      <cc:Work
         rdf:about="">
        <dc:format>image/svg+xml</dc:format>
        <dc:type
           rdf:resource="http://purl.org/dc/dcmitype/StillImage" />
        <dc:title></dc:title>
      </cc:Work>
    </rdf:RDF>
  </metadata>
  <g
     inkscape:label="Layer 1"
     inkscape:groupmode="layer"
     id="layer1"
     transform="translate(-145.97866,-242.24884)">
    <path
       style="fill:#000000"
       d="m 175.89299,312.45088 c -3.82542,-1.66268 -3.88184,-1.87729 -1.19885,-4.56028 1.42591,-1.42591 1.84709,-2.72143 1.38172,-4.25 -1.90723,-6.26457 -8.4118,-7.76678 -9.52103,-2.19885 -0.48567,2.43787 -0.74098,2.67167 -1.36259,1.24776 -1.28173,-2.93602 0.1708,-6.13428 5.0197,-11.05266 2.54583,-2.5823 4.18666,-4.6951 3.64628,-4.6951 -0.54038,0 -2.63734,1.8317 -4.65991,4.07044 l -3.6774,4.07045 -4.18896,-3.44953 c -9.71497,-8.00009 -16.00259,-14.37487 -15.29984,-15.51195 1.74689,-2.82654 7.80503,-1.08425 20.8211,5.98803 10.42668,5.66534 10.43715,5.6629 15.69525,-3.65394 4.12182,-7.30347 6.18501,-7.96959 18.63149,-6.01535 18.73382,2.94142 20.60856,3.02333 22.11285,0.96609 1.68366,-2.30255 1.71531,-3.28259 0.10019,-3.10313 -2.88319,0.32036 -16.78525,-2.72129 -15.64861,-3.42377 1.59277,-0.98439 16.22083,0.0883 16.97855,1.24502 0.31896,0.48694 2.30997,-5.00185 4.42445,-12.19731 2.11449,-7.19546 4.17541,-13.28716 4.57982,-13.5371 0.40442,-0.24994 1.50714,-0.15826 2.4505,0.20374 1.51192,0.58018 1.63514,1.67675 1.03973,9.25325 -0.37151,4.72728 -0.92418,10.21333 -1.22816,12.19121 l -0.55269,3.59615 7.8532,1.19882 c 12.01314,1.83385 13.41919,2.19311 12.75966,3.26025 -0.35644,0.57674 -4.83339,0.87425 -10.74582,0.71411 l -10.13483,-0.27451 -1.01531,4.95452 c -1.16591,5.68938 -2.97969,9.29587 -7.94956,15.80674 -3.45622,4.52789 -3.48161,4.62884 -1.29318,5.14159 3.86375,0.90528 33.64668,4.50618 37.2705,4.50618 4.06031,0 4.1377,0.24197 1.33581,4.17686 l -2.12593,2.9856 -29.12407,-0.70409 -29.12406,-0.7041 -4.89894,2.62286 c -4.00069,2.14195 -6.20096,2.61569 -12,2.58373 -3.90558,-0.0215 -8.56356,-0.67481 -10.35106,-1.45173 z m 25.12746,-22.31086 c 0.27253,-0.44096 -0.10115,-3.25346 -0.8304,-6.25 l -1.3259,-5.44827 -0.11058,6.25 c -0.0983,5.55432 0.82698,7.77808 2.26688,5.44827 z m 5.97946,-5.56319 c -0.7503,-4.92502 -1.92214,-6.63508 -4.54675,-6.63508 -1.37337,0 -1.80014,0.51429 -1.45222,1.75 0.27101,0.9625 0.80425,3.325 1.18499,5.25 0.91823,4.64254 1.12499,4.8996 3.4515,4.2912 1.72344,-0.45069 1.90739,-1.07933 1.36248,-4.65612 z m -10.00158,-2.7653 0.14466,-5.31953 -3.8945,-1.29665 c -4.99118,-1.66179 -6.99938,-0.9704 -9.6531,3.32341 -2.4758,4.00594 -2.00348,6.41163 1.26621,6.44921 1.25477,0.0144 4.08139,0.85596 6.28139,1.87009 2.2,1.01412 4.3849,1.49492 4.85534,1.06843 0.47044,-0.42648 0.92044,-3.16922 1,-6.09496 z m -29.97465,25.6799 c -0.35398,-0.92247 -0.1441,-2.77352 0.46641,-4.11345 1.36545,-2.99683 5.71951,-3.37708 6.60819,-0.57711 0.61487,1.93729 -0.19818,5.13087 -1.31228,5.15453 -0.35366,0.007 -1.65004,0.28357 -2.88086,0.61346 -1.55696,0.4173 -2.43367,0.0895 -2.88146,-1.07743 z"
       id="path3099"
       inkscape:connector-curvature="0" />
  </g>
</svg>
