<?xml version="1.0" encoding="UTF-8" standalone="no"?>
<!-- Created with Inkscape (http://www.inkscape.org/) -->

<svg
   xmlns:dc="http://purl.org/dc/elements/1.1/"
   xmlns:cc="http://creativecommons.org/ns#"
   xmlns:rdf="http://www.w3.org/1999/02/22-rdf-syntax-ns#"
   xmlns:svg="http://www.w3.org/2000/svg"
   xmlns="http://www.w3.org/2000/svg"
   xmlns:sodipodi="http://sodipodi.sourceforge.net/DTD/sodipodi-0.dtd"
   xmlns:inkscape="http://www.inkscape.org/namespaces/inkscape"
   version="1.1"
   width="31.740967"
   height="32.277676"
   id="svg3205"
   inkscape:version="0.48.4 r9939"
   sodipodi:docname="icon_plane_house_small.svg">
  <sodipodi:namedview
     pagecolor="#ffffff"
     bordercolor="#666666"
     borderopacity="1"
     objecttolerance="10"
     gridtolerance="10"
     guidetolerance="10"
     inkscape:pageopacity="0"
     inkscape:pageshadow="2"
     inkscape:window-width="708"
     inkscape:window-height="480"
     id="namedview4494"
     showgrid="false"
     inkscape:zoom="7.311555"
     inkscape:cx="15.870483"
     inkscape:cy="9.0951925"
     inkscape:window-x="1492"
     inkscape:window-y="181"
     inkscape:window-maximized="0"
     inkscape:current-layer="layer1" />
  <defs
     id="defs3207" />
  <metadata
     id="metadata3210">
    <rdf:RDF>
      <cc:Work
         rdf:about="">
        <dc:format>image/svg+xml</dc:format>
        <dc:type
           rdf:resource="http://purl.org/dc/dcmitype/StillImage" />
        <dc:title />
      </cc:Work>
    </rdf:RDF>
  </metadata>
  <g
     transform="translate(-100.89086,-538.31738)"
     id="layer1">
    <g
       transform="matrix(0.26983204,0,0,0.25390054,-17.899885,500.93956)"
       id="g3031">
      <path
         d="m 498.31889,273.15521 c -0.99162,-0.649 -8.06174,-4.70374 -15.71137,-9.01054 -7.64963,-4.3068 -14.19818,-8.21081 -14.55233,-8.67557 -0.47598,-0.62464 -0.64391,-4.25137 -0.64391,-13.90626 l 0,-13.06124 -1.5902,-0.87751 c -0.87461,-0.48263 -3.13473,-1.92195 -5.02249,-3.19849 -2.83077,-1.91422 -3.45934,-2.59732 -3.58666,-3.8978 -0.13062,-1.33412 0.26582,-1.96217 2.57563,-4.08043 1.50151,-1.37698 5.17688,-4.83863 8.16751,-7.69255 8.41811,-8.03333 18.70738,-17.5774 19.38523,-17.98126 0.47733,-0.2844 26.35832,3.69494 33.25782,5.11356 1.39665,0.28717 1.4166,0.25469 1.4166,-2.30717 0,-3.33207 0.60123,-3.65959 5.92396,-3.2271 l 4.12101,0.33485 0.25756,4.19245 0.25757,4.19244 3.60589,3.31194 c 1.98323,1.82156 7.5466,6.85818 12.36304,11.19249 4.81643,4.3343 8.95564,8.22474 9.19825,8.64542 0.27742,0.48106 0.10504,1.51007 -0.46459,2.77328 -1.0911,2.41964 -2.50379,2.63277 -4.77627,0.7206 -0.84177,-0.7083 -1.66802,-1.28781 -1.83612,-1.28781 -0.1681,0 -0.36644,8.50257 -0.44076,18.8946 l -0.13513,18.89459 -24.46852,6.0652 c -13.45769,3.33586 -24.70033,6.06229 -24.98365,6.05874 -0.28332,-0.004 -1.32646,-0.53744 -2.31807,-1.18643 z"
         id="path3051"
         style="fill:#e4e4e4;stroke-width:1.14615323;stroke-miterlimit:4;stroke-dasharray:none;stroke:#000000;stroke-opacity:1" />
      <path
         d="m 485.69828,265.33843 c -8.21627,-4.65693 -15.57615,-8.93541 -16.35528,-9.50772 l -1.4166,-1.04056 0,-13.09627 c 0,-15.0419 0.83112,-12.7743 -6.34271,-17.30526 -3.61746,-2.28478 -4.00833,-2.68749 -3.86345,-3.98057 0.12652,-1.12915 3.3475,-4.45292 14.97289,-15.45071 8.14644,-7.70664 15.10065,-14.0082 15.45381,-14.00345 0.35315,0.005 8.05993,1.25435 17.12616,2.7769 9.06623,1.52256 16.65791,2.66404 16.8704,2.53662 0.21249,-0.12743 0.38635,-1.35223 0.38635,-2.7218 0,-2.91705 0.29528,-3.11547 4.63614,-3.11547 4.60829,0 4.63614,0.0274 4.63614,4.55432 l 0,3.92898 3.32747,3.0989 c 1.83011,1.7044 7.49416,6.80782 12.58678,11.34094 5.09261,4.53312 9.40237,8.63611 9.57724,9.11776 0.43615,1.20134 -1.10526,4.01911 -2.19523,4.01297 -0.8741,-0.005 -3.78435,-2.08145 -7.32733,-5.22822 -11.91998,-10.58694 -17.7369,-15.71101 -18.28113,-16.10367 -0.47279,-0.34111 -2.3012,1.2437 -6.51312,5.64541 -3.22069,3.36581 -6.32245,6.59271 -6.89282,7.1709 -0.57036,0.57818 -4.04704,4.14107 -7.72595,7.91753 l -6.68892,6.86628 -9.8e-4,20.39105 c -6.2e-4,13.15937 -0.18364,20.43914 -0.51608,20.52667 -0.28332,0.0746 -7.23753,-3.67459 -15.4538,-8.33153 z m 33.00944,2.79216 c -0.45429,-1.43248 -0.80027,-25.44579 -0.37602,-26.0984 0.55013,-0.84625 15.96097,-4.79841 17.21358,-4.41448 0.84421,0.25875 0.90003,1.25283 0.77269,13.7605 l -0.13726,13.4816 -6.69665,1.64657 c -9.23098,2.26971 -10.51047,2.46255 -10.77634,1.62421 z"
         id="path3049"
         style="fill:#d1d1d1" />
      <path
         d="m 493.94031,269.31322 c -3.39984,-1.94328 -10.12224,-5.76043 -14.93868,-8.48255 -4.81643,-2.72213 -9.10487,-5.15491 -9.52985,-5.40619 -0.64624,-0.3821 -0.79488,-2.47097 -0.90831,-12.76444 -0.0746,-6.76916 -0.24654,-12.80396 -0.38211,-13.41066 -0.15505,-0.69384 -1.72917,-2.0137 -4.24296,-3.5576 -4.81109,-2.95484 -6.31453,-4.24447 -6.31453,-5.41651 0,-0.76771 28.11368,-27.83192 29.96204,-28.84357 0.3784,-0.2071 8.10583,0.86978 17.17206,2.39308 9.06623,1.5233 16.7617,2.77352 17.10105,2.77826 0.38256,0.005 0.67614,-1.01893 0.77269,-2.6958 l 0.1557,-2.70441 4.37858,0 4.37857,0 0.25757,4.20908 c 0.14166,2.31499 0.37346,4.30931 0.51512,4.43182 3.93608,3.40393 22.80777,20.47381 23.81113,21.5377 0.91577,0.97102 1.29114,1.80327 1.08073,2.3962 -0.39948,1.12575 -1.7314,2.71138 -2.27754,2.71138 -0.50936,0 -5.58333,-4.30963 -16.37513,-13.90842 -4.61873,-4.10814 -8.71757,-7.65148 -9.10854,-7.87409 -0.69357,-0.39492 -2.65968,1.53653 -22.76802,22.36674 l -5.78536,5.99305 0,19.89207 c 0,10.94064 -0.17386,19.89117 -0.38635,19.89008 -0.21249,-10e-4 -3.16803,-1.59194 -6.56786,-3.53522 z m 25.63743,-1.73121 c -0.77453,-0.97281 -1.21733,-25.02753 -0.4697,-25.51596 0.97372,-0.63614 15.48115,-4.08421 16.17119,-3.8435 0.49144,0.17142 0.64204,3.16938 0.63603,12.66132 -0.004,6.84019 -0.18681,12.71825 -0.40547,13.06236 -0.21867,0.34411 -3.40247,1.33589 -7.0751,2.20394 -3.67265,0.86806 -7.05047,1.69283 -7.50628,1.83283 -0.45581,0.14 -1.06361,-0.0404 -1.35067,-0.40099 z"
         id="path3047"
         style="fill:#dea19f" />
      <path
         d="m 493.94031,269.31322 c -3.39984,-1.94328 -10.12224,-5.76043 -14.93868,-8.48255 -4.81643,-2.72213 -9.10487,-5.15504 -9.52985,-5.40647 -0.65133,-0.38536 -0.78683,-2.55188 -0.86277,-13.7947 l -0.0901,-13.33754 -4.03092,-2.66552 c -6.00717,-3.97233 -6.349,-4.2562 -6.349,-5.27251 0,-0.51464 1.21698,-2.05908 2.70441,-3.43209 1.48743,-1.37302 7.99866,-7.48967 14.46941,-13.59257 6.47075,-6.10291 12.04216,-11.25363 12.38092,-11.44607 0.33876,-0.19243 8.02571,0.90747 17.08211,2.44423 9.0564,1.53676 16.87184,2.79529 17.36765,2.79673 0.74743,0.002 0.90147,-0.47208 0.90147,-2.77546 0,-1.75596 0.23691,-2.86299 0.64391,-3.00886 0.35415,-0.12693 2.20861,-0.12473 4.12101,0.005 l 3.47711,0.23568 0,3.74637 c 0,2.82845 0.22088,4.00113 0.90147,4.78614 0.49581,0.57188 6.11713,5.72658 12.49183,11.45491 6.37469,5.72832 11.7827,10.74603 12.01779,11.15047 0.45938,0.79028 -0.84719,3.25559 -1.72539,3.25559 -0.46764,0 -3.19633,-2.35147 -19.26093,-16.59823 -3.42524,-3.03765 -6.48899,-5.52957 -6.80833,-5.53761 -0.31934,-0.008 -6.69403,6.41187 -14.16598,14.26645 -7.47196,7.85459 -15.7179,16.48669 -18.32432,19.18244 l -4.73894,4.90136 -1.70014,-0.62236 c -1.53372,-0.56144 -1.60226,-0.54824 -0.70022,0.13482 1.8539,1.40384 2.95821,0.86972 6.95623,-3.36452 2.14047,-2.26694 4.06561,-4.1214 4.2781,-4.12101 0.21249,3.8e-4 0.38635,8.69345 0.38635,19.31794 0,10.62449 -0.17386,19.31636 -0.38635,19.31527 -0.21249,-10e-4 -3.16803,-1.59194 -6.56786,-3.53522 z m 25.63743,-1.73121 c -0.77453,-0.97281 -1.21733,-25.02753 -0.4697,-25.51596 0.97372,-0.63614 15.48115,-4.08421 16.17119,-3.8435 0.49144,0.17142 0.64204,3.16938 0.63603,12.66132 -0.004,6.84019 -0.18681,12.71825 -0.40547,13.06236 -0.21867,0.34411 -3.40247,1.33589 -7.0751,2.20394 -3.67265,0.86806 -7.05047,1.69283 -7.50628,1.83283 -0.45581,0.14 -1.06361,-0.0404 -1.35067,-0.40099 z"
         id="path3045"
         style="fill:#afaeae" />
      <path
         d="m 519.70843,263.96449 c -0.18028,-1.77075 -0.25668,-7.37029 -0.16978,-12.44343 l 0.158,-9.22389 7.21177,-1.70729 c 3.96648,-0.93902 7.51243,-1.60136 7.87989,-1.47188 0.53502,0.18853 0.59922,2.62243 0.3223,12.219 -0.1902,6.59097 -0.49612,12.15112 -0.67983,12.35589 -0.25088,0.27964 -13.34403,3.49114 -14.23323,3.49114 -0.0887,0 -0.30884,-1.44879 -0.48912,-3.21954 z m -39.42526,-28.15838 c -5.52128,-3.37519 -10.73412,-6.70169 -11.58408,-7.39222 -0.84995,-0.69053 -3.16803,-2.25706 -5.15126,-3.48118 -6.51608,-4.02191 -6.63718,-4.38063 -2.70442,-8.01087 1.48743,-1.37302 7.99866,-7.48967 14.46941,-13.59257 6.47075,-6.10291 12.04216,-11.25363 12.38092,-11.44607 0.33876,-0.19243 8.02571,0.90747 17.08211,2.44423 9.0564,1.53676 16.87184,2.79529 17.36765,2.79673 0.74743,0.002 0.90147,-0.47208 0.90147,-2.77546 0,-1.75596 0.23691,-2.86299 0.64391,-3.00886 0.35415,-0.12693 2.20861,-0.12473 4.12101,0.005 l 3.47711,0.23568 0,3.74637 c 0,2.82845 0.22088,4.00113 0.90147,4.78614 0.49581,0.57188 6.11713,5.72658 12.49183,11.45491 6.37469,5.72832 11.7827,10.74603 12.01779,11.15047 0.45938,0.79028 -0.84719,3.25559 -1.72539,3.25559 -0.46764,0 -3.19633,-2.35147 -19.26093,-16.59823 -3.42524,-3.03765 -6.47737,-5.52957 -6.78252,-5.53761 -0.52215,-0.0138 -12.83233,12.62566 -29.49286,30.28161 -4.06014,4.30274 -7.77188,7.82316 -8.2483,7.82316 -0.47642,0 -5.38363,-2.76152 -10.90492,-6.13671 z"
         id="path3043"
         style="fill:#d05f60" />
      <path
         d="m 519.70843,263.96449 c -0.18028,-1.77075 -0.25668,-7.37029 -0.16978,-12.44343 l 0.158,-9.22389 7.21177,-1.70729 c 3.96648,-0.93902 7.51243,-1.60136 7.87989,-1.47188 0.53502,0.18853 0.59922,2.62243 0.3223,12.219 -0.1902,6.59097 -0.49612,12.15112 -0.67983,12.35589 -0.25088,0.27964 -13.34403,3.49114 -14.23323,3.49114 -0.0887,0 -0.30884,-1.44879 -0.48912,-3.21954 z M 486.63607,239.4368 c -2.2693,-1.37832 -4.33588,-2.5953 -4.5924,-2.70442 -0.25652,-0.10912 -1.85725,-1.10806 -3.55717,-2.21987 -5.66537,-3.70538 -6.68871,-4.31219 -7.85623,-4.65852 -0.63777,-0.18919 -1.38805,-0.7709 -1.6673,-1.29267 -0.27924,-0.52177 -2.71177,-2.30258 -5.40561,-3.95734 -3.17287,-1.94903 -4.89883,-3.32669 -4.90056,-3.91162 -10e-4,-0.49662 1.67792,-2.48381 3.73199,-4.41597 2.05407,-1.93216 8.65,-8.16017 14.65761,-13.84001 8.76591,-8.28763 11.15647,-10.28771 12.10548,-10.1281 0.6504,0.10939 8.04173,1.3542 16.42519,2.76626 8.38346,1.41205 15.85923,2.56737 16.61284,2.56737 1.31562,0 1.37019,-0.11163 1.37019,-2.80279 0,-1.54154 0.17385,-2.8863 0.38634,-2.98836 0.21249,-0.10206 1.83514,-0.0952 3.60589,0.0153 l 3.21954,0.20091 0,3.46168 c 0,2.00501 0.27096,3.79378 0.64391,4.2509 0.60369,0.73992 6.06039,5.72807 18.15822,16.599 2.8332,2.54587 5.59862,5.04105 6.14538,5.54485 0.84104,0.77496 0.90223,1.11765 0.39739,2.22565 -0.3282,0.72032 -0.85759,1.30966 -1.17643,1.30966 -0.31885,0 -4.18277,-3.18735 -8.5865,-7.08299 -4.40373,-3.89565 -10.04043,-8.8795 -12.52599,-11.07523 -2.48557,-2.19573 -4.73044,-3.99223 -4.98861,-3.99223 -0.4574,0 -22.40998,22.79926 -32.10997,33.34841 -2.66721,2.90069 -5.10096,5.27672 -5.40833,5.28004 -0.30737,0.003 -2.41556,-1.12165 -4.68487,-2.49996 z"
         id="path3041"
         style="fill:#7e7e7e" />
      <path
         d="m 485.39757,238.66522 c -2.95113,-1.80268 -6.87243,-4.23419 -8.71401,-5.40334 -1.84158,-1.16916 -4.27555,-2.62199 -5.40883,-3.22851 -1.13328,-0.60652 -2.23562,-1.40199 -2.44965,-1.76769 -0.21403,-0.36571 -2.58885,-2.01615 -5.27737,-3.66765 -3.16595,-1.94476 -4.88918,-3.32086 -4.89091,-3.90567 -10e-4,-0.49662 1.67792,-2.48381 3.73199,-4.41597 2.05407,-1.93216 8.65,-8.16017 14.65761,-13.84001 8.76591,-8.28763 11.15647,-10.28771 12.10548,-10.1281 0.6504,0.10939 8.04173,1.3542 16.42519,2.76626 8.38346,1.41205 15.85923,2.56737 16.61284,2.56737 1.31562,0 1.37019,-0.11163 1.37019,-2.80279 0,-1.54154 0.17385,-2.8863 0.38634,-2.98836 0.21249,-0.10206 1.83514,-0.0952 3.60589,0.0153 l 3.21954,0.20091 0,3.46168 c 0,2.00501 0.27096,3.79378 0.64391,4.2509 0.60369,0.73992 6.06039,5.72807 18.15822,16.599 2.8332,2.54587 5.59862,5.04105 6.14538,5.54485 0.84104,0.77496 0.90223,1.11765 0.39739,2.22565 -0.3282,0.72032 -0.85759,1.30966 -1.17643,1.30966 -0.31885,0 -4.18277,-3.18735 -8.5865,-7.08299 -4.40373,-3.89565 -10.04043,-8.8795 -12.52599,-11.07523 -2.48557,-2.19573 -4.73044,-3.99223 -4.98861,-3.99223 -0.4574,0 -22.40998,22.79926 -32.10997,33.34841 -2.66721,2.90069 -5.10069,5.27672 -5.40774,5.28004 -0.30705,0.003 -2.97283,-1.46886 -5.92396,-3.27154 z"
         id="path3039"
         style="fill:#b65859" />
      <path
         d="m 479.98608,234.56593 c -5.97491,-3.734 -12.69731,-7.93074 -14.93868,-9.32607 -4.21991,-2.62706 -6.39328,-4.31947 -6.39328,-4.97849 0,-0.20991 6.52619,-6.5442 14.50265,-14.07619 11.73971,-11.08555 14.77274,-13.69454 15.92034,-13.69454 0.77973,0 8.21991,1.15819 16.53374,2.57375 8.31383,1.41556 15.75352,2.5746 16.53265,2.57564 1.3739,0.002 1.4166,-0.0835 1.4166,-2.83131 l 0,-2.8332 3.60589,0 3.60588,0 0,3.7818 0,3.7818 3.21955,3.05683 c 1.77074,1.68126 7.46197,6.84954 12.64717,11.48508 7.29152,6.51856 9.39244,8.67366 9.27229,9.51138 -0.0855,0.59572 -0.50307,1.14849 -0.92805,1.22838 -0.42498,0.0799 -6.26616,-4.72775 -12.9804,-10.68362 -7.06973,-6.27121 -12.6333,-10.82886 -13.21888,-10.82886 -0.58177,0 -2.28837,1.38542 -4.01878,3.26244 -7.07222,7.67144 -33.29469,34.85381 -33.59098,34.82061 -0.17834,-0.02 -5.2128,-3.09142 -11.18771,-6.82543 z"
         id="path3037"
         style="fill:#e80000;stroke:#000000;stroke-opacity:1" />
      <path
         d="m 479.98608,234.56593 c -5.97491,-3.734 -12.69731,-7.93074 -14.93868,-9.32607 -4.21991,-2.62706 -6.39328,-4.31947 -6.39328,-4.97849 0,-0.20991 6.52619,-6.5442 14.50265,-14.07619 12.61484,-11.91192 14.71028,-13.69257 16.09771,-13.67945 2.71666,0.0257 27.48325,4.52252 25.18747,4.57324 -1.19016,0.0263 -3.27643,-0.1665 -4.63614,-0.42845 -5.99117,-1.15417 -11.59938,-2.1521 -16.37793,-2.9143 l -5.14857,-0.82122 -1.32803,1.59076 c -0.73042,0.87493 -1.5632,1.59077 -1.85062,1.59077 -0.28743,0 -1.47818,0.98518 -2.64612,2.18929 -1.16794,1.20411 -4.71955,4.62326 -7.89246,7.59812 -3.17291,2.97486 -7.63535,7.21571 -9.91653,9.42411 l -4.14759,4.01529 1.52493,1.24624 c 0.83872,0.68543 1.82197,1.25458 2.18501,1.26477 0.36304,0.0102 0.78529,0.34482 0.93833,0.74363 0.15304,0.39881 1.43201,1.22145 2.84216,1.82808 1.41015,0.60663 3.01621,1.55527 3.56903,2.10808 0.55282,0.55282 1.37743,1.00513 1.83247,1.00513 0.45504,0 1.67202,0.66457 2.70441,1.47683 1.03239,0.81226 2.84653,1.96798 4.03142,2.56827 1.18488,0.6003 2.31426,1.35022 2.50973,1.66649 0.19547,0.31628 1.08048,0.90124 1.96668,1.29991 0.8862,0.39868 2.23548,1.2217 2.99839,1.82895 1.35994,1.08246 1.41544,1.08554 2.8332,0.15728 0.79534,-0.52074 1.88183,-1.50019 2.41442,-2.17655 0.53259,-0.67636 7.02319,-7.33393 14.42355,-14.7946 7.40036,-7.46066 13.83297,-13.99235 14.29468,-14.51485 0.46171,-0.5225 1.7946,-1.84929 2.96198,-2.94843 1.16738,-1.09913 2.12251,-2.3005 2.12251,-2.6697 0,-0.88708 -1.73613,-1.40487 -3.48868,-1.04046 -0.77276,0.16068 -2.56406,-0.0394 -3.98066,-0.44456 l -2.57563,-0.73671 3.4771,0.29652 3.47711,0.29653 0,-2.90434 0,-2.90433 3.60589,0 3.60588,0 0,3.7818 0,3.7818 3.21955,3.05683 c 1.77074,1.68126 7.46197,6.84954 12.64717,11.48508 7.29152,6.51856 9.39244,8.67366 9.27229,9.51138 -0.0855,0.59572 -0.50307,1.14849 -0.92805,1.22838 -0.42498,0.0799 -6.26616,-4.72775 -12.9804,-10.68362 -7.06973,-6.27121 -12.6333,-10.82886 -13.21888,-10.82886 -0.58177,0 -2.28837,1.38542 -4.01878,3.26244 -7.07222,7.67144 -33.29469,34.85381 -33.59098,34.82061 -0.17834,-0.02 -5.2128,-3.09142 -11.18771,-6.82543 z M 529.033,197.76281 c 0.76608,-0.50058 1.32896,-3.30375 0.82105,-4.08892 -0.22048,-0.34083 -1.37524,-0.7755 -2.56615,-0.96594 -1.71794,-0.27471 -2.22996,-0.17768 -2.47837,0.46967 -0.53693,1.39922 0.75211,4.37747 1.99951,4.61973 0.6213,0.12066 1.24554,0.24741 1.3872,0.28165 0.14166,0.0342 0.5182,-0.10804 0.83676,-0.31619 z"
         id="path3035"
         style="fill:#b81113" />
      <path
         d="m 489.56173,238.85736 c -18.43151,-10.71598 -29.82571,-17.92146 -29.85771,-18.88146 -0.0209,-0.62651 18.19469,-18.21297 18.8645,-18.21297 0.21724,0 -1.9008,2.14421 -4.70677,4.76492 -2.80597,2.62071 -6.96072,6.5718 -9.23277,8.7802 l -4.13102,4.01529 1.52493,1.24624 c 0.83872,0.68543 1.82197,1.25458 2.18501,1.26477 0.36304,0.0102 0.78529,0.34482 0.93833,0.74363 0.15304,0.39881 1.43201,1.22145 2.84216,1.82808 1.41015,0.60663 3.01621,1.55527 3.56903,2.10808 0.55282,0.55282 1.37743,1.00513 1.83247,1.00513 0.45504,0 1.67202,0.66457 2.70441,1.47683 1.03239,0.81226 2.84653,1.96798 4.03142,2.56827 1.18488,0.6003 2.31426,1.35022 2.50973,1.66649 0.19547,0.31628 1.08048,0.90124 1.96668,1.29991 0.8862,0.39868 2.23548,1.2217 2.99839,1.82895 1.35994,1.08246 1.41544,1.08554 2.8332,0.15728 0.79534,-0.52074 1.88183,-1.50019 2.41442,-2.17655 0.53259,-0.67636 7.02319,-7.33393 14.42355,-14.7946 7.40036,-7.46066 13.83297,-13.99235 14.29468,-14.51485 0.46171,-0.5225 1.7946,-1.84929 2.96198,-2.94843 1.16738,-1.09913 2.12251,-2.3005 2.12251,-2.6697 0,-0.88915 -1.73969,-1.4054 -3.48868,-1.03526 -0.77276,0.16354 -2.10045,0.0697 -2.95041,-0.20846 -1.40435,-0.45965 -1.35365,-0.48051 0.55564,-0.22859 2.57298,0.33948 3.17821,-0.26545 3.40118,-3.39951 l 0.1642,-2.30797 2.78051,0.11903 c 1.52929,0.0655 2.91865,0.25715 3.08748,0.42598 0.16883,0.16883 0.24209,1.99629 0.1628,4.06103 l -0.14415,3.75406 1.95038,1.67731 c 1.07272,0.92251 3.77487,3.32992 6.0048,5.34979 2.22993,2.01987 4.37415,3.85787 4.76492,4.08443 0.39079,0.22657 0.71051,0.63224 0.71051,0.90148 0,1.14551 -1.61832,0.31112 -4.29587,-2.21489 -3.53468,-3.33463 -6.87168,-6.1606 -7.9937,-6.76951 -0.46539,-0.25257 -1.33017,-1.04434 -1.92173,-1.75951 l -1.07557,-1.30029 -1.63005,2.36919 c -0.89653,1.30306 -2.31121,2.85423 -3.14376,3.44705 -0.83254,0.59282 -1.65895,1.53545 -1.83645,2.09473 -0.17751,0.55928 -0.77074,1.01687 -1.31829,1.01687 -0.54754,0 -0.99554,0.24745 -0.99554,0.54989 0,0.59926 -3.11274,4.04408 -9.52984,10.54651 -2.26656,2.2967 -6.84905,7.00753 -10.18331,10.46852 -3.89881,4.04699 -6.3806,6.23947 -6.95421,6.14353 -0.66121,-0.11058 -0.85023,0.15064 -0.73076,1.00987 0.17176,1.23526 -0.96102,1.53189 -2.47923,0.64921 z M 529.033,197.76281 c 0.76608,-0.50058 1.32896,-3.30375 0.82105,-4.08892 -0.22048,-0.34083 -1.37524,-0.7755 -2.56615,-0.96594 -1.71794,-0.27471 -2.22996,-0.17768 -2.47837,0.46967 -0.53693,1.39922 0.75211,4.37747 1.99951,4.61973 0.6213,0.12066 1.24554,0.24741 1.3872,0.28165 0.14166,0.0342 0.5182,-0.10804 0.83676,-0.31619 z m 23.64559,24.04044 c -1.12567,-1.10599 -1.75974,-2.01088 -1.40903,-2.01088 0.92064,0 4.48326,3.38765 3.92495,3.73219 -0.25808,0.15927 -1.39025,-0.61532 -2.51592,-1.72131 z m -4.35434,-3.25284 c -0.41237,-0.49687 -0.43232,-0.83245 -0.0631,-1.06066 0.7193,-0.44455 1.5704,0.12191 1.5704,1.0452 0,0.94581 -0.72899,0.95329 -1.50732,0.0155 z m -3.30655,-2.79084 c -0.906,-1.00112 -1.13416,-2.14873 -0.42719,-2.14873 0.50037,0 2.66542,2.22369 2.66542,2.73762 0,0.70172 -1.40472,0.33213 -2.23823,-0.58889 z m -64.47069,-16.02659 c 0.56664,-0.64723 2.57599,-2.5486 4.46523,-4.22526 l 3.43498,-3.04847 5.8373,0.99498 c 3.21052,0.54724 5.31585,1.01792 4.6785,1.04595 -0.63734,0.028 -3.30066,-0.31865 -5.91849,-0.77042 l -4.75969,-0.82138 -1.3308,1.59407 c -0.73193,0.87675 -1.57669,1.59408 -1.87724,1.59408 -0.30055,0 -1.3554,0.89541 -2.34411,1.9898 -0.98872,1.09438 -2.11678,2.17736 -2.5068,2.40661 -0.39002,0.22926 -0.24552,-0.11273 0.32112,-0.75996 z m 36.45595,-2.40229 c 0.17117,-0.17117 0.61547,-0.18947 0.98733,-0.0407 0.41093,0.16444 0.28887,0.28651 -0.31122,0.31122 -0.54303,0.0224 -0.84728,-0.0994 -0.67611,-0.27055 z m -9.38406,-1.03538 c -4.6964,-0.85146 -5.81683,-1.2821 -2.33672,-0.89812 3.77831,0.41688 9.52277,1.6079 7.71782,1.60017 -0.84996,-0.004 -3.27146,-0.31957 -5.3811,-0.70205 z m -7.09999,-1.54025 c 0.17117,-0.17118 0.61547,-0.18948 0.98732,-0.0407 0.41094,0.16444 0.28887,0.2865 -0.31122,0.31122 -0.54303,0.0224 -0.84728,-0.0994 -0.6761,-0.27056 z"
         id="path3033"
         style="fill:#cf0405" />
    </g>
    <path
       d="m 108.43317,556.01741 c -0.9645,-0.41921 -0.97873,-0.47332 -0.30227,-1.14978 0.35951,-0.35951 0.46571,-0.68615 0.34838,-1.07155 -0.48087,-1.5795 -2.12087,-1.95824 -2.40054,-0.5544 -0.12245,0.61465 -0.18683,0.67361 -0.34355,0.3146 -0.32316,-0.74026 0.043,-1.54663 1.26561,-2.78671 0.64188,-0.65107 1.05559,-1.18377 0.91934,-1.18377 -0.13629,0 -0.66496,0.46181 -1.17491,1.02628 l -0.92717,1.02628 -1.05617,-0.86974 c -2.44944,-2.01705 -4.03474,-3.62433 -3.85755,-3.91102 0.44045,-0.71266 1.96788,-0.27337 5.24963,1.50976 2.62888,1.4284 2.63152,1.42779 3.95724,-0.92128 1.03923,-1.84141 1.55943,-2.00937 4.69756,-1.51664 4.72336,0.74161 5.19604,0.76227 5.57532,0.24358 0.4245,-0.58054 0.43247,-0.82764 0.0252,-0.7824 -0.72694,0.0808 -4.23206,-0.6861 -3.94549,-0.86322 0.40159,-0.2482 4.08976,0.0222 4.28081,0.3139 0.0804,0.12272 0.58241,-1.26112 1.11553,-3.07531 0.53314,-1.81419 1.05276,-3.35009 1.15472,-3.41311 0.10191,-0.063 0.37999,-0.0399 0.61784,0.0514 0.38121,0.14627 0.41227,0.42275 0.26215,2.33302 -0.0937,1.19188 -0.23301,2.57508 -0.30965,3.07377 l -0.13936,0.9067 1.98003,0.30226 c 3.02887,0.46236 3.38339,0.55294 3.2171,0.822 -0.0898,0.14542 -1.21864,0.22043 -2.70935,0.18005 l -2.55529,-0.0692 -0.25599,1.24918 c -0.29397,1.43447 -0.75128,2.34378 -2.00433,3.98536 -0.87141,1.14161 -0.87781,1.16706 -0.32605,1.29635 0.97417,0.22825 8.48334,1.13615 9.39702,1.13615 1.02373,0 1.04323,0.061 0.3368,1.05311 l -0.53602,0.75276 -7.34305,-0.17753 -7.34305,-0.17752 -1.23517,0.6613 c -1.00869,0.54004 -1.56345,0.6595 -3.02556,0.65143 -0.98472,-0.005 -2.15913,-0.17013 -2.60981,-0.36602 z m 6.33538,-5.62524 c 0.0688,-0.11122 -0.0255,-0.82029 -0.20936,-1.57581 l -0.33431,-1.37367 -0.0279,1.57581 c -0.0248,1.40042 0.20851,1.96109 0.57154,1.37367 z m 1.5076,-1.40264 c -0.18917,-1.24175 -0.48462,-1.67291 -1.14636,-1.67291 -0.34627,0 -0.45387,0.12971 -0.36616,0.44123 0.0683,0.24267 0.20278,0.83834 0.29878,1.32368 0.23151,1.17053 0.28364,1.23534 0.87023,1.08195 0.43453,-0.11369 0.48091,-0.27214 0.34351,-1.17395 z m -2.52169,-0.69722 0.0364,-1.34122 -0.98191,-0.32692 c -1.25844,-0.41899 -1.76476,-0.24466 -2.43384,0.83794 -0.62422,1.01001 -0.50514,1.61656 0.31924,1.62604 0.31637,0.004 1.02905,0.21581 1.58373,0.4715 0.55468,0.25569 1.10557,0.37692 1.22418,0.26938 0.11862,-0.10752 0.23207,-0.79905 0.25214,-1.53672 z m -7.55751,6.47467 c -0.0893,-0.23258 -0.0363,-0.69928 0.11752,-1.03711 0.34428,-0.7556 1.44206,-0.85148 1.66613,-0.14551 0.15503,0.48845 -0.05,1.29364 -0.33087,1.29961 -0.0892,10e-4 -0.41603,0.0715 -0.72635,0.15467 -0.39256,0.10519 -0.61359,0.0226 -0.7265,-0.27166 z"
       id="path3099"
       style="fill:#009bff;fill-opacity:1;stroke-width:0.40000000000000002;stroke-miterlimit:4;stroke-dasharray:none;stroke:#000000;stroke-opacity:1" />
  </g>
</svg>
