<?xml version="1.0" encoding="UTF-8" standalone="no"?>
<!-- Created with Inkscape (http://www.inkscape.org/) -->

<svg
   xmlns:dc="http://purl.org/dc/elements/1.1/"
   xmlns:cc="http://creativecommons.org/ns#"
   xmlns:rdf="http://www.w3.org/1999/02/22-rdf-syntax-ns#"
   xmlns:svg="http://www.w3.org/2000/svg"
   xmlns="http://www.w3.org/2000/svg"
   version="1.1"
   width="40.174294"
   height="24.095268"
   id="svg3123">
  <defs
     id="defs3125" />
  <metadata
     id="metadata3128">
    <rdf:RDF>
      <cc:Work
         rdf:about="">
        <dc:format>image/svg+xml</dc:format>
        <dc:type
           rdf:resource="http://purl.org/dc/dcmitype/StillImage" />
        <dc:title></dc:title>
      </cc:Work>
    </rdf:RDF>
  </metadata>
  <g
     transform="translate(-225.27564,-242.24886)"
     id="layer1">
    <path
       d="m 235.33485,265.85549 c -1.28637,-0.55911 -1.30534,-0.63127 -0.40313,-1.53347 0.47948,-0.4795 0.62111,-0.91514 0.46462,-1.42913 -0.64132,-2.10659 -2.82861,-2.61172 -3.20161,-0.7394 -0.16331,0.81976 -0.24918,0.89838 -0.45819,0.41957 -0.431,-0.98729 0.0573,-2.06276 1.68796,-3.71665 0.85607,-0.86834 1.40783,-1.57879 1.22611,-1.57879 -0.18175,0 -0.88685,0.61591 -1.56697,1.36873 l -1.23658,1.36877 -1.40861,-1.15997 c -3.26684,-2.69016 -5.38116,-4.83379 -5.14483,-5.21616 0.58741,-0.95047 2.62456,-0.3646 7.00145,2.01359 3.50615,1.90505 3.50967,1.90424 5.27779,-1.22872 1.38603,-2.4559 2.07982,-2.6799 6.26516,-2.02275 6.29959,0.98909 6.92998,1.01664 7.43584,0.32486 0.56617,-0.77428 0.57679,-1.10383 0.0337,-1.04349 -0.96951,0.10778 -5.64432,-0.91506 -5.26211,-1.15128 0.53559,-0.33102 5.45453,0.0295 5.70935,0.41864 0.10715,0.16368 0.77675,-1.68195 1.48778,-4.10156 0.71105,-2.41959 1.40406,-4.46803 1.54005,-4.55208 0.13597,-0.084 0.50679,-0.0532 0.82401,0.0685 0.50842,0.19507 0.54986,0.56381 0.34964,3.11156 -0.12493,1.58961 -0.31077,3.43438 -0.41298,4.0995 l -0.18587,1.20927 2.64078,0.40311 c 4.03962,0.61666 4.51244,0.73749 4.29066,1.09631 -0.1198,0.19395 -1.62532,0.29399 -3.61348,0.24014 l -3.408,-0.0923 -0.34141,1.66604 c -0.39208,1.91316 -1.00198,3.12591 -2.67319,5.3153 -1.16222,1.52258 -1.17075,1.55651 -0.43484,1.72895 1.29924,0.30442 11.31427,1.51528 12.53284,1.51528 1.36536,0 1.39137,0.0814 0.44919,1.40455 l -0.71488,1.00395 -9.79348,-0.23678 -9.79346,-0.23674 -1.64736,0.88198 c -1.34529,0.72024 -2.08517,0.87956 -4.03521,0.86881 -1.31332,-0.008 -2.87964,-0.22691 -3.48072,-0.48816 z m 8.44954,-7.50242 c 0.0918,-0.14825 -0.0341,-1.09403 -0.27923,-2.10168 l -0.44586,-1.83206 -0.0373,2.10167 c -0.033,1.86774 0.27809,2.61551 0.76228,1.83207 z m 2.01069,-1.87071 c -0.2523,-1.65613 -0.64635,-2.23116 -1.52891,-2.23116 -0.46181,0 -0.60532,0.17299 -0.48835,0.58845 0.0911,0.32367 0.27044,1.1181 0.39849,1.76542 0.30875,1.56114 0.37829,1.64757 1.16062,1.443 0.57954,-0.15156 0.6414,-0.36295 0.45815,-1.56571 z m -3.36319,-0.92987 0.0486,-1.78881 -1.30958,-0.43601 c -1.67838,-0.55881 -2.35365,-0.3263 -3.24602,1.11756 -0.83252,1.34706 -0.67371,2.15601 0.42577,2.16867 0.42196,0.005 1.37246,0.28782 2.11223,0.62884 0.73979,0.34101 1.47452,0.5027 1.63271,0.35928 0.15819,-0.14337 0.30951,-1.06571 0.33627,-2.04953 z m -10.07949,8.6353 c -0.11917,-0.3102 -0.0485,-0.93265 0.15675,-1.38321 0.45916,-1.00774 1.92327,-1.13562 2.22213,-0.19406 0.20675,0.65144 -0.0667,1.72533 -0.4413,1.73329 -0.11892,10e-4 -0.55485,0.0954 -0.96872,0.20627 -0.52358,0.14039 -0.81836,0.0302 -0.96894,-0.36229 z"
       id="path3099"
       style="fill:#000000" />
  </g>
</svg>
