<?xml version="1.0" encoding="UTF-8" standalone="no"?>
<!-- Created with Inkscape (http://www.inkscape.org/) -->

<svg
   xmlns:dc="http://purl.org/dc/elements/1.1/"
   xmlns:cc="http://creativecommons.org/ns#"
   xmlns:rdf="http://www.w3.org/1999/02/22-rdf-syntax-ns#"
   xmlns:svg="http://www.w3.org/2000/svg"
   xmlns="http://www.w3.org/2000/svg"
   xmlns:sodipodi="http://sodipodi.sourceforge.net/DTD/sodipodi-0.dtd"
   xmlns:inkscape="http://www.inkscape.org/namespaces/inkscape"
   width="25.52706"
   height="15.310369"
   id="svg3123"
   version="1.1"
   inkscape:version="0.48.4 r9939"
   sodipodi:docname="New document 10">
  <defs
     id="defs3125" />
  <sodipodi:namedview
     id="base"
     pagecolor="#ffffff"
     bordercolor="#666666"
     borderopacity="1.0"
     inkscape:pageopacity="0.0"
     inkscape:pageshadow="2"
     inkscape:zoom="1.979899"
     inkscape:cx="-37.62824"
     inkscape:cy="-49.654511"
     inkscape:document-units="px"
     inkscape:current-layer="layer1"
     showgrid="false"
     inkscape:window-width="804"
     inkscape:window-height="553"
     inkscape:window-x="1183"
     inkscape:window-y="115"
     inkscape:window-maximized="0"
     fit-margin-top="0"
     fit-margin-left="0"
     fit-margin-right="0"
     fit-margin-bottom="0" />
  <metadata
     id="metadata3128">
    <rdf:RDF>
      <cc:Work
         rdf:about="">
        <dc:format>image/svg+xml</dc:format>
        <dc:type
           rdf:resource="http://purl.org/dc/dcmitype/StillImage" />
        <dc:title></dc:title>
      </cc:Work>
    </rdf:RDF>
  </metadata>
  <g
     inkscape:label="Layer 1"
     inkscape:groupmode="layer"
     id="layer1"
     transform="translate(-239.92285,-242.24885)">
    <path
       style="fill:#000000"
       d="m 246.31456,257.2487 c -0.81737,-0.35526 -0.82943,-0.40111 -0.25616,-0.97438 0.30467,-0.30467 0.39466,-0.58148 0.29523,-0.90808 -0.40751,-1.33854 -1.79732,-1.6595 -2.03433,-0.46982 -0.10377,0.52088 -0.15833,0.57084 -0.29114,0.2666 -0.27386,-0.62733 0.0364,-1.31069 1.07254,-2.36159 0.54396,-0.55175 0.89455,-1.00318 0.77909,-1.00318 -0.11549,0 -0.56352,0.39136 -0.99567,0.86971 l -0.78574,0.86972 -0.89504,-0.73705 c -2.07577,-1.70935 -3.41923,-3.07143 -3.26907,-3.31439 0.37325,-0.60394 1.66767,-0.23167 4.44878,1.27945 2.22784,1.21049 2.23008,1.20997 3.35355,-0.78074 0.8807,-1.5605 1.32154,-1.70283 3.98094,-1.28527 4.00281,0.62847 4.40337,0.64598 4.72479,0.20642 0.35975,-0.49198 0.3665,-0.70138 0.0214,-0.66304 -0.61604,0.0685 -3.58645,-0.58144 -3.34359,-0.73154 0.34032,-0.21033 3.46585,0.0188 3.62776,0.26601 0.0681,0.10401 0.49356,-1.06873 0.94535,-2.60616 0.45181,-1.53743 0.89216,-2.83903 0.97856,-2.89243 0.0864,-0.0534 0.32202,-0.0338 0.52359,0.0435 0.32305,0.12395 0.34938,0.35825 0.22216,1.97711 -0.0794,1.01005 -0.19747,2.18224 -0.26241,2.60486 l -0.1181,0.76838 1.67797,0.25614 c 2.56681,0.39183 2.86724,0.4686 2.72632,0.6966 -0.0761,0.12324 -1.03274,0.18681 -2.29603,0.15259 l -2.16548,-0.0586 -0.21693,1.05862 c -0.24913,1.21564 -0.63667,1.98623 -1.69857,3.37738 -0.73848,0.96746 -0.7439,0.98902 -0.2763,1.09859 0.82555,0.19343 7.18918,0.96282 7.96347,0.96282 0.86756,0 0.88409,0.0517 0.28542,0.89246 l -0.45424,0.63792 -6.22286,-0.15045 -6.22284,-0.15043 -1.04675,0.56042 c -0.85481,0.45765 -1.32493,0.55888 -2.564,0.55205 -0.8345,-0.005 -1.82975,-0.14418 -2.21168,-0.31018 z m 5.3689,-4.7671 c 0.0583,-0.0942 -0.0216,-0.69515 -0.17742,-1.33542 l -0.28331,-1.16411 -0.0237,1.33542 c -0.021,1.18678 0.1767,1.66192 0.48435,1.16411 z m 1.27761,-1.18866 c -0.16031,-1.05232 -0.41069,-1.4177 -0.97148,-1.4177 -0.29344,0 -0.38463,0.10992 -0.3103,0.37391 0.0579,0.20566 0.17184,0.71045 0.2532,1.12176 0.19619,0.99196 0.24037,1.04688 0.73747,0.91689 0.36824,-0.0963 0.40755,-0.23062 0.29111,-0.99486 z m -2.137,-0.59085 0.0309,-1.13662 -0.83212,-0.27705 c -1.06646,-0.35507 -1.49553,-0.20733 -2.06255,0.71011 -0.52899,0.85593 -0.42808,1.36995 0.27054,1.37799 0.26811,0.003 0.87207,0.18289 1.34213,0.39957 0.47007,0.21668 0.93692,0.31942 1.03743,0.22829 0.10052,-0.0911 0.19667,-0.67716 0.21367,-1.30229 z m -6.40459,5.48694 c -0.0757,-0.1971 -0.0308,-0.59261 0.0996,-0.8789 0.29176,-0.64033 1.22207,-0.72158 1.41196,-0.12331 0.13137,0.41393 -0.0424,1.09629 -0.2804,1.10135 -0.0756,0.001 -0.35256,0.0606 -0.61554,0.13107 -0.33268,0.0892 -0.51999,0.0192 -0.61567,-0.23021 z"
       id="path3099"
       inkscape:connector-curvature="0" />
  </g>
</svg>
