<?xml version="1.0" encoding="UTF-8" standalone="no"?>
<!-- Created with Inkscape (http://www.inkscape.org/) -->

<svg
   xmlns:dc="http://purl.org/dc/elements/1.1/"
   xmlns:cc="http://creativecommons.org/ns#"
   xmlns:rdf="http://www.w3.org/1999/02/22-rdf-syntax-ns#"
   xmlns:svg="http://www.w3.org/2000/svg"
   xmlns="http://www.w3.org/2000/svg"
   xmlns:sodipodi="http://sodipodi.sourceforge.net/DTD/sodipodi-0.dtd"
   xmlns:inkscape="http://www.inkscape.org/namespaces/inkscape"
   width="18.14846"
   height="18.579243"
   id="svg3779"
   version="1.1"
   inkscape:version="0.48.4 r9939">
  <defs
     id="defs3781" />
  <sodipodi:namedview
     id="base"
     pagecolor="#ffffff"
     bordercolor="#666666"
     borderopacity="1.0"
     inkscape:pageopacity="0.0"
     inkscape:pageshadow="2"
     inkscape:zoom="2.8"
     inkscape:cx="-48.066432"
     inkscape:cy="-2.1440189"
     inkscape:document-units="px"
     inkscape:current-layer="layer1"
     showgrid="false"
     fit-margin-top="0"
     fit-margin-left="0"
     fit-margin-right="0"
     fit-margin-bottom="0"
     inkscape:window-width="884"
     inkscape:window-height="423"
     inkscape:window-x="1346"
     inkscape:window-y="145"
     inkscape:window-maximized="0" />
  <metadata
     id="metadata3784">
    <rdf:RDF>
      <cc:Work
         rdf:about="">
        <dc:format>image/svg+xml</dc:format>
        <dc:type
           rdf:resource="http://purl.org/dc/dcmitype/StillImage" />
        <dc:title></dc:title>
      </cc:Work>
    </rdf:RDF>
  </metadata>
  <g
     inkscape:label="Layer 1"
     inkscape:groupmode="layer"
     id="layer1"
     transform="translate(-473.63584,-440.86408)">
    <path
       style="fill:#0065ec;fill-opacity:1;stroke:#000000;stroke-width:0.53299999;stroke-linejoin:round;stroke-miterlimit:4;stroke-opacity:1;stroke-dasharray:none"
       d="m 473.91581,452.7717 c -0.0266,-0.24901 -0.009,-0.61468 0.0393,-0.81261 l 0.0876,-0.35987 3.64871,-2.06959 3.64871,-2.0696 -0.0289,-2.2893 c -0.0159,-1.25912 0.0331,-2.48259 0.10897,-2.71882 0.34219,-1.06591 0.76884,-1.46638 1.38163,-1.29685 0.30602,0.0847 0.39001,0.18621 0.72427,0.87569 0.36005,0.74268 0.37935,0.88825 0.40412,3.04788 0.0143,1.24737 0.0599,2.32775 0.10132,2.40086 0.0414,0.0731 1.69654,1.13837 3.67805,2.36727 1.9815,1.22891 3.65698,2.3301 3.72327,2.4471 0.0663,0.11701 0.0931,0.52887 0.0595,0.91527 -0.10471,1.20443 -0.14223,1.20574 -3.31932,0.1163 -1.52151,-0.52173 -3.06653,-0.97743 -3.43338,-1.01265 -0.77773,-0.0747 -0.70523,-0.2703 -0.69093,1.86437 0.005,0.7908 -0.0623,1.67659 -0.15016,1.96843 l -0.15979,0.53061 0.95185,0.43075 c 0.82384,0.37282 0.97116,0.48286 1.09533,0.81822 0.22636,0.61133 0.14842,1.12855 -0.1839,1.22038 -0.30046,0.083 -4.77265,-0.004 -5.42352,-0.10573 -0.32336,-0.0505 -0.41175,-0.12207 -0.48705,-0.39457 -0.0506,-0.1831 -0.0321,-0.54937 0.0411,-0.81392 0.10324,-0.37316 0.2043,-0.50477 0.45075,-0.58697 0.17473,-0.0583 0.5978,-0.22513 0.94016,-0.37077 l 0.62247,-0.26482 -0.14447,-0.42172 c -0.0795,-0.23195 -0.17313,-1.22373 -0.20814,-2.20397 l -0.0637,-1.78224 -0.58513,-0.016 c -0.39394,-0.0108 -1.4515,0.23843 -3.23665,0.76271 -1.45834,0.4283 -2.795,0.77113 -2.97036,0.76185 -0.36955,-0.0196 -0.55317,-0.29657 -0.6216,-0.93767 z"
       id="path3817"
       inkscape:connector-curvature="0" />
  </g>
</svg>
